<svg width="22.000000" height="22.000000" viewBox="0 0 22 22" fill="none" xmlns="http://www.w3.org/2000/svg" xmlns:xlink="http://www.w3.org/1999/xlink">
	<defs/>
	<path id="Vector" d="M2.87891 2.75781C2.79102 2.75098 2.66602 2.75 2.43359 2.75L0.916016 2.75C0.410156 2.75 0 2.33984 0 1.83398C0 1.32715 0.410156 0.916992 0.916016 0.916992L2.43359 0.916992L2.45898 0.916992C2.65625 0.916992 2.84961 0.916992 3.01758 0.929688C3.20312 0.943359 3.41992 0.976562 3.64258 1.07617C3.95703 1.21582 4.22461 1.44238 4.41797 1.72754C4.55273 1.93066 4.62305 2.1377 4.66797 2.31836C4.70898 2.48047 4.74219 2.67285 4.77734 2.86621C4.77734 2.875 4.7793 2.88379 4.78125 2.8916L5 4.14746L16.9297 4.50098C17.3965 4.51465 17.8008 4.52637 18.1328 4.56348C18.4844 4.60254 18.834 4.6748 19.168 4.85352C19.6758 5.12305 20.084 5.54492 20.3398 6.05957C20.5078 6.39941 20.5703 6.75 20.5977 7.10254C20.625 7.43652 20.625 7.83984 20.625 8.30762L20.625 8.37598C20.625 8.81543 20.625 9.19629 20.5996 9.5127C20.5742 9.84766 20.5176 10.1807 20.3633 10.5068C20.1289 11.0039 19.752 11.4189 19.2812 11.6992C18.9707 11.8838 18.6445 11.9736 18.3125 12.0312C18.002 12.0869 17.6211 12.123 17.1836 12.166L8.26172 13.0293C7.8125 13.0723 7.42383 13.1104 7.09961 13.1162C6.75586 13.1221 6.41211 13.0947 6.06641 12.9678C5.54883 12.7773 5.09961 12.4355 4.77734 11.9863C4.56445 11.6865 4.44727 11.3613 4.36133 11.0293C4.28125 10.7148 4.21484 10.3301 4.13672 9.88672L2.97461 3.20605C2.93555 2.97656 2.91406 2.85449 2.89062 2.76758C2.89062 2.76367 2.88867 2.76074 2.88867 2.75879C2.88672 2.75781 2.88281 2.75781 2.87891 2.75781ZM5.32031 5.99121L5.9375 9.53906C6.02148 10.0254 6.07617 10.3379 6.13672 10.5732C6.19531 10.7979 6.24023 10.8789 6.26953 10.9199C6.37695 11.0693 6.52539 11.1836 6.69922 11.2471C6.74609 11.2646 6.83594 11.2871 7.06836 11.2832C7.31055 11.2783 7.62695 11.249 8.11914 11.2012L16.9746 10.3438C17.4551 10.2979 17.7617 10.2666 17.9961 10.2256C18.2188 10.1865 18.3008 10.1494 18.3438 10.124C18.5 10.0303 18.627 9.8916 18.7051 9.72656C18.7246 9.68164 18.7559 9.5957 18.7734 9.37012C18.791 9.13379 18.791 8.82422 18.791 8.34277C18.791 7.83008 18.791 7.50098 18.7715 7.24902C18.752 7.00879 18.7188 6.91797 18.6973 6.87305C18.6113 6.70215 18.4746 6.56152 18.3066 6.4707C18.2617 6.44727 18.1719 6.41211 17.9316 6.38574C17.6816 6.3584 17.3516 6.34766 16.8398 6.33203L5.32031 5.99121ZM5.04102 16.959C5.04102 15.4395 6.27344 14.209 7.79102 14.209C9.31055 14.209 10.541 15.4395 10.541 16.959C10.541 18.4775 9.31055 19.709 7.79102 19.709C6.27344 19.709 5.04102 18.4775 5.04102 16.959ZM16.5 14.209C14.9805 14.209 13.75 15.4395 13.75 16.959C13.75 18.4775 14.9805 19.709 16.5 19.709C18.0195 19.709 19.25 18.4775 19.25 16.959C19.25 15.4395 18.0195 14.209 16.5 14.209ZM7.79102 16.042C7.28516 16.042 6.875 16.4521 6.875 16.959C6.875 17.4648 7.28516 17.875 7.79102 17.875C8.29883 17.875 8.70898 17.4648 8.70898 16.959C8.70898 16.4521 8.29883 16.042 7.79102 16.042ZM15.584 16.959C15.584 16.4521 15.9941 16.042 16.5 16.042C17.0059 16.042 17.416 16.4521 17.416 16.959C17.416 17.4648 17.0059 17.875 16.5 17.875C15.9941 17.875 15.584 17.4648 15.584 16.959Z" fill="#424551" fill-opacity="1.000000" fill-rule="evenodd"/>
</svg>
