<svg width="20.000000" height="20.000000" viewBox="0 0 20 20" fill="none" xmlns="http://www.w3.org/2000/svg" xmlns:xlink="http://www.w3.org/1999/xlink">
	<defs/>
	<path id="Vector (Stroke)" d="M10 16.5898C6.16602 14.4062 4.0293 12.2373 2.99609 10.3545C1.9375 8.42773 2.0293 6.80469 2.61719 5.65332C3.82422 3.28613 7.25391 2.5293 9.3457 5.17285L9.99805 6L10.6523 5.17383C12.7441 2.5293 16.1758 3.28613 17.3828 5.65332C17.9688 6.80469 18.0605 8.42773 17.0039 10.3545C15.9688 12.2373 13.832 14.4062 10 16.5898ZM10 3.42188C7.05859 0.626953 2.71875 1.78223 1.13281 4.89648C0.259766 6.60547 0.248047 8.81543 1.53516 11.1562C2.80859 13.4775 5.34961 15.9268 9.5957 18.2744L10 18.4971L10.4023 18.2744C14.6484 15.9268 17.1895 13.4775 18.4648 11.1562C19.75 8.81543 19.7383 6.60547 18.8672 4.89648C17.2793 1.78223 12.9395 0.626953 10 3.42188Z" fill="#424551" fill-opacity="1.000000" fill-rule="evenodd"/>
</svg>
