<svg width="20.000000" height="12.000000" viewBox="0 0 20 12" fill="none" xmlns="http://www.w3.org/2000/svg" xmlns:xlink="http://www.w3.org/1999/xlink">
	<desc>
			Created with Pixso.
	</desc>
	<defs>
		<clipPath id="clip5_3545">
			<rect id="flag-usa" width="20.000000" height="12.000000" fill="white" fill-opacity="0"/>
		</clipPath>
	</defs>
	<g clip-path="url(#clip5_3545)">
		<path id="Vector" d="M20 0L0 0L0 12L20 12L20 0Z" fill="#B22234" fill-opacity="1.000000" fill-rule="evenodd"/>
		<path id="Vector (Stroke)" d="M20 1.74512L0 1.74512L0 0.799805L20 0.799805L20 1.74512ZM0 2.69043L20 2.69043L20 3.63574L0 3.63574L0 2.69043ZM20 5.52734L0 5.52734L0 4.58203L20 4.58203L20 5.52734ZM0 6.47266L20 6.47266L20 7.41797L0 7.41797L0 6.47266ZM20 9.30859L0 9.30859L0 8.36328L20 8.36328L20 9.30859ZM0 10.2539L20 10.2539L20 11.2002L0 11.2002L0 10.2539Z" fill="#FFFFFF" fill-opacity="1.000000" fill-rule="evenodd"/>
		<path id="Vector" d="M0 0L9.11914 0L9.11914 6.46191L0 6.46191L0 0Z" fill="#3C3B6E" fill-opacity="1.000000" fill-rule="evenodd"/>
		<path id="Vector" d="M0.759766 0.22168L0.841797 0.476562L1.11133 0.476562L0.892578 0.634766L0.976562 0.889648L0.759766 0.732422L0.542969 0.889648L0.625 0.634766L0.408203 0.476562L0.675781 0.476562L0.759766 0.22168ZM2.27344 0.22168L2.35742 0.476562L2.625 0.476562L2.4082 0.634766L2.49023 0.889648L2.27344 0.732422L2.05664 0.889648L2.14062 0.634766L1.92188 0.476562L2.19141 0.476562L2.27344 0.22168ZM3.78906 0.22168L3.87109 0.476562L4.14062 0.476562L3.92188 0.634766L4.00586 0.889648L3.78906 0.732422L3.57227 0.889648L3.6543 0.634766L3.4375 0.476562L3.70508 0.476562L3.78906 0.22168ZM5.30273 0.22168L5.38672 0.476562L5.6543 0.476562L5.4375 0.634766L5.51953 0.889648L5.30273 0.732422L5.08594 0.889648L5.16992 0.634766L4.95117 0.476562L5.2207 0.476562L5.30273 0.22168ZM6.81836 0.22168L6.90039 0.476562L7.16992 0.476562L6.95117 0.634766L7.03516 0.889648L6.81836 0.732422L6.60156 0.889648L6.68359 0.634766L6.4668 0.476562L6.73438 0.476562L6.81836 0.22168ZM8.33203 0.22168L8.41602 0.476562L8.68359 0.476562L8.4668 0.634766L8.54883 0.889648L8.33203 0.732422L8.11523 0.889648L8.19922 0.634766L7.98047 0.476562L8.25 0.476562L8.33203 0.22168ZM1.51367 0.889648L1.5957 1.14453L1.86523 1.14453L1.64844 1.30273L1.73047 1.55762L1.51367 1.39941L1.29688 1.55762L1.37891 1.30273L1.16211 1.14453L1.43164 1.14453L1.51367 0.889648ZM3.02734 0.889648L3.11133 1.14453L3.37891 1.14453L3.16211 1.30273L3.24609 1.55762L3.02734 1.39941L2.81055 1.55762L2.89453 1.30273L2.67773 1.14453L2.94531 1.14453L3.02734 0.889648ZM4.54297 0.889648L4.625 1.14453L4.89453 1.14453L4.67773 1.30273L4.75977 1.55762L4.54297 1.39941L4.32617 1.55762L4.4082 1.30273L4.19141 1.14453L4.46094 1.14453L4.54297 0.889648ZM6.05664 0.889648L6.14062 1.14453L6.4082 1.14453L6.19141 1.30273L6.27539 1.55762L6.05664 1.39941L5.83984 1.55762L5.92383 1.30273L5.70703 1.14453L5.97461 1.14453L6.05664 0.889648ZM7.57227 0.889648L7.6543 1.14453L7.92383 1.14453L7.70703 1.30273L7.78906 1.55762L7.57227 1.39941L7.35547 1.55762L7.4375 1.30273L7.2207 1.14453L7.48828 1.14453L7.57227 0.889648ZM0.759766 1.55762L0.841797 1.8125L1.11133 1.8125L0.892578 1.9707L0.976562 2.22559L0.759766 2.06738L0.542969 2.22559L0.625 1.9707L0.408203 1.8125L0.675781 1.8125L0.759766 1.55762ZM2.27344 1.55762L2.35742 1.8125L2.625 1.8125L2.4082 1.9707L2.49023 2.22559L2.27344 2.06738L2.05664 2.22559L2.14062 1.9707L1.92188 1.8125L2.19141 1.8125L2.27344 1.55762ZM3.78906 1.55762L3.87109 1.8125L4.14062 1.8125L3.92188 1.9707L4.00586 2.22559L3.78906 2.06738L3.57227 2.22559L3.6543 1.9707L3.4375 1.8125L3.70508 1.8125L3.78906 1.55762ZM5.30273 1.55762L5.38672 1.8125L5.6543 1.8125L5.4375 1.9707L5.51953 2.22559L5.30273 2.06738L5.08594 2.22559L5.16992 1.9707L4.95117 1.8125L5.2207 1.8125L5.30273 1.55762ZM6.81836 1.55762L6.90039 1.8125L7.16992 1.8125L6.95117 1.9707L7.03516 2.22559L6.81836 2.06738L6.60156 2.22559L6.68359 1.9707L6.4668 1.8125L6.73438 1.8125L6.81836 1.55762ZM8.33203 1.55762L8.41602 1.8125L8.68359 1.8125L8.4668 1.9707L8.54883 2.22559L8.33203 2.06738L8.11523 2.22559L8.19922 1.9707L7.98047 1.8125L8.25 1.8125L8.33203 1.55762ZM1.51367 2.22559L1.5957 2.48047L1.86523 2.48047L1.64844 2.63867L1.73047 2.89355L1.51367 2.73535L1.29688 2.89355L1.37891 2.63867L1.16211 2.48047L1.43164 2.48047L1.51367 2.22559ZM3.02734 2.22559L3.11133 2.48047L3.37891 2.48047L3.16211 2.63867L3.24609 2.89355L3.02734 2.73535L2.81055 2.89355L2.89453 2.63867L2.67773 2.48047L2.94531 2.48047L3.02734 2.22559ZM4.54297 2.22559L4.625 2.48047L4.89453 2.48047L4.67773 2.63867L4.75977 2.89355L4.54297 2.73535L4.32617 2.89355L4.4082 2.63867L4.19141 2.48047L4.46094 2.48047L4.54297 2.22559ZM6.05664 2.22559L6.14062 2.48047L6.4082 2.48047L6.19141 2.63867L6.27539 2.89355L6.05664 2.73535L5.83984 2.89355L5.92383 2.63867L5.70703 2.48047L5.97461 2.48047L6.05664 2.22559ZM7.57227 2.22559L7.6543 2.48047L7.92383 2.48047L7.70703 2.63867L7.78906 2.89355L7.57227 2.73535L7.35547 2.89355L7.4375 2.63867L7.2207 2.48047L7.48828 2.48047L7.57227 2.22559ZM0.759766 2.89355L0.841797 3.14844L1.11133 3.14844L0.892578 3.30664L0.976562 3.56152L0.759766 3.40332L0.542969 3.56152L0.625 3.30664L0.408203 3.14844L0.675781 3.14844L0.759766 2.89355ZM2.27344 2.89355L2.35742 3.14844L2.625 3.14844L2.4082 3.30664L2.49023 3.56152L2.27344 3.40332L2.05664 3.56152L2.14062 3.30664L1.92188 3.14844L2.19141 3.14844L2.27344 2.89355ZM3.78906 2.89355L3.87109 3.14844L4.14062 3.14844L3.92188 3.30664L4.00586 3.56152L3.78906 3.40332L3.57227 3.56152L3.6543 3.30664L3.4375 3.14844L3.70508 3.14844L3.78906 2.89355ZM5.30273 2.89355L5.38672 3.14844L5.6543 3.14844L5.4375 3.30664L5.51953 3.56152L5.30273 3.40332L5.08594 3.56152L5.16992 3.30664L4.95117 3.14844L5.2207 3.14844L5.30273 2.89355ZM6.81836 2.89355L6.90039 3.14844L7.16992 3.14844L6.95117 3.30664L7.03516 3.56152L6.81836 3.40332L6.60156 3.56152L6.68359 3.30664L6.4668 3.14844L6.73438 3.14844L6.81836 2.89355ZM8.33203 2.89355L8.41602 3.14844L8.68359 3.14844L8.4668 3.30664L8.54883 3.56152L8.33203 3.40332L8.11523 3.56152L8.19922 3.30664L7.98047 3.14844L8.25 3.14844L8.33203 2.89355ZM1.51367 3.56152L1.5957 3.81641L1.86523 3.81641L1.64844 3.97461L1.73047 4.22949L1.51367 4.07129L1.29688 4.22949L1.37891 3.97461L1.16211 3.81641L1.43164 3.81641L1.51367 3.56152ZM3.02734 3.56152L3.11133 3.81641L3.37891 3.81641L3.16211 3.97461L3.24609 4.22949L3.02734 4.07129L2.81055 4.22949L2.89453 3.97461L2.67773 3.81641L2.94531 3.81641L3.02734 3.56152ZM4.54297 3.56152L4.625 3.81641L4.89453 3.81641L4.67773 3.97461L4.75977 4.22949L4.54297 4.07129L4.32617 4.22949L4.4082 3.97461L4.19141 3.81641L4.46094 3.81641L4.54297 3.56152ZM6.05664 3.56152L6.14062 3.81641L6.4082 3.81641L6.19141 3.97461L6.27539 4.22949L6.05664 4.07129L5.83984 4.22949L5.92383 3.97461L5.70703 3.81641L5.97461 3.81641L6.05664 3.56152ZM7.57227 3.56152L7.6543 3.81641L7.92383 3.81641L7.70703 3.97461L7.78906 4.22949L7.57227 4.07129L7.35547 4.22949L7.4375 3.97461L7.2207 3.81641L7.48828 3.81641L7.57227 3.56152ZM0.759766 4.22949L0.841797 4.48438L1.11133 4.48438L0.892578 4.64258L0.976562 4.89746L0.759766 4.73926L0.542969 4.89746L0.625 4.64258L0.408203 4.48438L0.675781 4.48438L0.759766 4.22949ZM2.27344 4.22949L2.35742 4.48438L2.625 4.48438L2.4082 4.64258L2.49023 4.89746L2.27344 4.73926L2.05664 4.89746L2.14062 4.64258L1.92188 4.48438L2.19141 4.48438L2.27344 4.22949ZM3.78906 4.22949L3.87109 4.48438L4.14062 4.48438L3.92188 4.64258L4.00586 4.89746L3.78906 4.73926L3.57227 4.89746L3.6543 4.64258L3.4375 4.48438L3.70508 4.48438L3.78906 4.22949ZM5.30273 4.22949L5.38672 4.48438L5.6543 4.48438L5.4375 4.64258L5.51953 4.89746L5.30273 4.73926L5.08594 4.89746L5.16992 4.64258L4.95117 4.48438L5.2207 4.48438L5.30273 4.22949ZM6.81836 4.22949L6.90039 4.48438L7.16992 4.48438L6.95117 4.64258L7.03516 4.89746L6.81836 4.73926L6.60156 4.89746L6.68359 4.64258L6.4668 4.48438L6.73438 4.48438L6.81836 4.22949ZM8.33203 4.22949L8.41602 4.48438L8.68359 4.48438L8.4668 4.64258L8.54883 4.89746L8.33203 4.73926L8.11523 4.89746L8.19922 4.64258L7.98047 4.48438L8.25 4.48438L8.33203 4.22949ZM1.51367 4.89746L1.5957 5.15234L1.86523 5.15234L1.64844 5.31055L1.73047 5.56543L1.51367 5.40723L1.29688 5.56543L1.37891 5.31055L1.16211 5.15234L1.43164 5.15234L1.51367 4.89746ZM3.02734 4.89746L3.11133 5.15234L3.37891 5.15234L3.16211 5.31055L3.24609 5.56543L3.02734 5.40723L2.81055 5.56543L2.89453 5.31055L2.67773 5.15234L2.94531 5.15234L3.02734 4.89746ZM4.54297 4.89746L4.625 5.15234L4.89453 5.15234L4.67773 5.31055L4.75977 5.56543L4.54297 5.40723L4.32617 5.56543L4.4082 5.31055L4.19141 5.15234L4.46094 5.15234L4.54297 4.89746ZM6.05664 4.89746L6.14062 5.15234L6.4082 5.15234L6.19141 5.31055L6.27539 5.56543L6.05664 5.40723L5.83984 5.56543L5.92383 5.31055L5.70703 5.15234L5.97461 5.15234L6.05664 4.89746ZM7.57227 4.89746L7.6543 5.15234L7.92383 5.15234L7.70703 5.31055L7.78906 5.56543L7.57227 5.40723L7.35547 5.56543L7.4375 5.31055L7.2207 5.15234L7.48828 5.15234L7.57227 4.89746ZM0.759766 5.56543L0.841797 5.82031L1.11133 5.82031L0.892578 5.97852L0.976562 6.2334L0.759766 6.0752L0.542969 6.2334L0.625 5.97852L0.408203 5.82031L0.675781 5.82031L0.759766 5.56543ZM2.27344 5.56543L2.35742 5.82031L2.625 5.82031L2.4082 5.97852L2.49023 6.2334L2.27344 6.0752L2.05664 6.2334L2.14062 5.97852L1.92188 5.82031L2.19141 5.82031L2.27344 5.56543ZM3.78906 5.56543L3.87109 5.82031L4.14062 5.82031L3.92188 5.97852L4.00586 6.2334L3.78906 6.0752L3.57227 6.2334L3.6543 5.97852L3.4375 5.82031L3.70508 5.82031L3.78906 5.56543ZM5.30273 5.56543L5.38672 5.82031L5.6543 5.82031L5.4375 5.97852L5.51953 6.2334L5.30273 6.0752L5.08594 6.2334L5.16992 5.97852L4.95117 5.82031L5.2207 5.82031L5.30273 5.56543ZM6.81836 5.56543L6.90039 5.82031L7.16992 5.82031L6.95117 5.97852L7.03516 6.2334L6.81836 6.0752L6.60156 6.2334L6.68359 5.97852L6.4668 5.82031L6.73438 5.82031L6.81836 5.56543ZM8.33203 5.56543L8.41602 5.82031L8.68359 5.82031L8.4668 5.97852L8.54883 6.2334L8.33203 6.0752L8.11523 6.2334L8.19922 5.97852L7.98047 5.82031L8.25 5.82031L8.33203 5.56543Z" fill="#FFFFFF" fill-opacity="1.000000" fill-rule="evenodd"/>
	</g>
</svg>
