<svg width="130.000000" height="22.000000" viewBox="0 0 130 22" fill="none" xmlns="http://www.w3.org/2000/svg" xmlns:xlink="http://www.w3.org/1999/xlink">
	<desc>
			Created with Pixso.
	</desc>
	<defs>
		<clipPath id="clip5_3531">
			<rect id="logo" width="130.000000" height="21.999998" fill="white" fill-opacity="0"/>
		</clipPath>
	</defs>
	<g clip-path="url(#clip5_3531)">
		<path id="Vector" d="M0 11.0996C0 5 3.30078 1.2998 8.69922 1.2998C12.8008 1.2998 16.0996 3.7998 16.6992 7.5C16.8008 7.89941 16.5 8.2002 16.0996 8.2002L13.5 8.2002C13.1992 8.2002 13 8 12.9004 7.7002C12.4004 5.7998 10.8008 4.59961 8.69922 4.59961C5.80078 4.59961 4 7.09961 4 11.0996C4 15.0996 5.80078 17.5996 8.80078 17.5996C10.9004 17.5996 12.4004 16.5 13 14.7002C13.0996 14.3994 13.3008 14.2002 13.5996 14.2002L16.1992 14.2002C16.5996 14.2002 16.9004 14.5996 16.8008 14.8994C16.1992 18.5 13 20.8994 8.80078 20.8994C3.30078 20.8994 0 17.0996 0 11.0996ZM79 19.7002L79 5.5C79 5.2002 78.8008 5 78.5 5L74.0996 5C73.6992 5 73.3008 4.7002 73.3008 4.2002L73.3008 2.5C73.3008 2.10059 73.5996 1.7002 74.0996 1.7002L87.6992 1.7002C88.0996 1.7002 88.5 2 88.5 2.5L88.5 4.2002C88.5 4.60059 88.1992 5 87.6992 5L83.3008 5C83 5 82.8008 5.2002 82.8008 5.5L82.8008 19.8008C82.8008 20.2002 82.5 20.5 82.0996 20.5L79.5996 20.5C79.3008 20.4004 79 20.1006 79 19.7002ZM21.4004 20.4004L24.2988 20.4004C24.5996 20.4004 24.9004 20.2002 24.7988 20L24.7988 14.0996C24.7988 13.7998 25 13.5996 25.2988 13.5996L27.5996 13.5996C27.9004 13.5996 28.1992 13.7002 28.2988 14L31.1992 20C31.2988 20.2002 31.5 20.2998 31.6992 20.2998L35 20.2998C35.2988 20.2998 35.5996 19.9004 35.4004 19.5996L32.2988 13.7002C32.0996 13.4004 32.1992 12.9004 32.5996 12.7002C34.2988 11.7002 35.2988 9.7998 35.2988 7.7002C35.2988 4.09961 32.7988 1.7998 28.6992 1.7998L21.6992 1.7998C21.2988 1.7998 20.9004 2.2002 20.9004 2.59961L20.9004 19.9004C20.9004 20.2002 21.0996 20.4004 21.4004 20.4004ZM51.5 20.4004L40.5 20.4004C40.0996 20.4004 39.8008 20.0996 39.8008 19.7002L39.8008 2.5C39.8008 2.09961 40.0996 1.7998 40.5 1.7998L51.5 1.7998C51.9004 1.7998 52.1992 2.09961 52.1992 2.5L52.1992 4.40039C52.1992 4.7998 51.9004 5.09961 51.5 5.09961L44.1992 5.09961C43.9004 5.09961 43.6992 5.2998 43.6992 5.59961L43.6992 9C43.6992 9.2998 43.9004 9.5 44.1992 9.5L51 9.5C51.4004 9.5 51.6992 9.7998 51.6992 10.2002L51.6992 11.9004C51.6992 12.2998 51.4004 12.5996 51 12.5996L44.1992 12.5996C43.9004 12.5996 43.6992 12.7998 43.6992 13.0996L43.6992 16.9004C43.6992 17.2002 43.9004 17.4004 44.1992 17.4004L51.5 17.4004C51.9004 17.4004 52.1992 17.7002 52.1992 18.0996L52.1992 20C52.1992 20.0996 51.9004 20.4004 51.5 20.4004ZM61.3008 15.9004L67 15.9004C67.1992 15.9004 67.5 16.0996 67.5 16.2998L68.5996 20C68.6992 20.2002 68.9004 20.4004 69.1992 20.4004L72.0996 20.4004C72.5 20.4004 72.8008 20 72.6992 19.5996L66.6992 2.2002C66.5996 2 66.4004 1.7998 66.0996 1.7998L62.4004 1.7998C62.0996 1.7998 61.9004 2 61.8008 2.2002L55.8008 19.5996C55.6992 20 56 20.4004 56.4004 20.4004L59 20.4004C59.3008 20.4004 59.5 20.2998 59.5996 20L60.6992 16.2998C60.8008 16.0996 61 15.9004 61.3008 15.9004ZM92.8008 20.4004L103.801 20.4004C104.199 20.4004 104.5 20.0996 104.5 20L104.5 18.0996C104.5 17.7002 104.199 17.4004 103.801 17.4004L96.5 17.4004C96.1992 17.4004 96 17.2002 96 16.9004L96 13.0996C96 12.7998 96.1992 12.5996 96.5 12.5996L103.301 12.5996C103.699 12.5996 104 12.2998 104 11.9004L104 10.2002C104 9.7998 103.699 9.5 103.301 9.5L96.5 9.5C96.1992 9.5 96 9.2998 96 9L96 5.59961C96 5.2998 96.1992 5.09961 96.5 5.09961L103.801 5.09961C104.199 5.09961 104.5 4.7998 104.5 4.40039L104.5 2.5C104.5 2.09961 104.199 1.7998 103.801 1.7998L92.8008 1.7998C92.4004 1.7998 92.0996 2.09961 92.0996 2.5L92.0996 19.7002C92.0996 20.0996 92.4004 20.4004 92.8008 20.4004ZM25.4004 10.7002C25.0996 10.7002 24.9004 10.5 24.9004 10.2002L25 10.2002L25 5.40039C25 5.09961 25.1992 4.90039 25.5 4.90039L28.4004 4.90039C30.2988 4.90039 31.5 6 31.5 7.7998C31.5 9.59961 30.4004 10.7002 28.4004 10.7002L25.4004 10.7002ZM66.1992 13L62.0996 13C61.9004 13 61.8008 12.7998 61.9004 12.5996L64.0996 5.59961L64.3008 5.59961L66.5 12.5996C66.5 12.7998 66.4004 13 66.1992 13Z" fill="#1E212C" fill-opacity="1.000000" fill-rule="evenodd"/>
		<path id="Vector" d="M111.5 1.59961L117.701 9.7002C118.4 10.5 118.4 11.7002 117.701 12.2998L111.5 20.4004C111.102 20.7998 110.602 21 110.102 21C109.602 21 109.102 20.7998 108.701 20.4004C108 19.5996 108 18.4004 108.701 17.5996L113.602 11L108.701 4.40039C108 3.59961 108 2.40039 108.701 1.59961C109.102 1.2002 109.602 1 110.102 1C110.602 1 111.102 1.2002 111.5 1.59961ZM126.543 1.59961L120.344 9.7002C119.645 10.5 119.645 11.7002 120.344 12.2998L126.543 20.4004C126.943 20.7998 127.443 21 127.943 21C128.443 21 128.943 20.7998 129.344 20.4004C130.043 19.5996 130.043 18.4004 129.344 17.5996L124.443 11L129.344 4.40039C130.043 3.59961 130.043 2.40039 129.344 1.59961C128.943 1.2002 128.443 1 127.943 1C127.443 1 126.943 1.2002 126.543 1.59961Z" fill="#17696A" fill-opacity="1.000000" fill-rule="evenodd"/>
	</g>
</svg>
