<svg style="opacity: 0.6" width="16.000000" height="16.000000" viewBox="0 0 16 16" fill="none" xmlns="http://www.w3.org/2000/svg" xmlns:xlink="http://www.w3.org/1999/xlink">
	<desc>
			Created with Pixso.
	</desc>
	<defs>
		<clipPath id="clip5_3534">
			<rect id="Profile" width="16.000000" height="16.000000" fill="white" fill-opacity="0"/>
		</clipPath>
	</defs>
	<g clip-path="url(#clip5_3534)">
		<path id="Vector" d="M8 0.833008C5.97461 0.833008 4.33398 2.47461 4.33398 4.5C4.33398 6.52441 5.97461 8.16602 8 8.16602C10.0254 8.16602 11.668 6.52441 11.668 4.5C11.668 2.47461 10.0254 0.833008 8 0.833008ZM5.66797 4.5C5.66797 3.21094 6.71094 2.16602 8 2.16602C9.28906 2.16602 10.334 3.21094 10.334 4.5C10.334 5.78809 9.28906 6.83301 8 6.83301C6.71094 6.83301 5.66797 5.78809 5.66797 4.5ZM4.07031 8.83301C3.19531 8.83301 2.29102 9.27051 1.88477 10.1641C1.65234 10.6777 1.40234 11.3672 1.3418 12.0869C1.28516 12.7412 1.55664 13.4248 2.16992 13.8057C3.07227 14.3662 4.9082 15.166 8 15.166C11.0938 15.166 12.9277 14.3662 13.8301 13.8057C14.4434 13.4248 14.7168 12.7412 14.6602 12.0869C14.5977 11.3672 14.3477 10.6777 14.1152 10.1641C13.7109 9.27051 12.8047 8.83301 11.9316 8.83301L4.07031 8.83301ZM3.09961 10.7148C3.24609 10.3916 3.60742 10.166 4.07031 10.166L11.9316 10.166C12.3926 10.166 12.7539 10.3916 12.9004 10.7148C13.1035 11.1621 13.2871 11.6953 13.332 12.2002C13.3516 12.4268 13.2559 12.5928 13.127 12.6738C12.4414 13.0996 10.8516 13.833 8 13.833C5.15039 13.833 3.56055 13.0996 2.875 12.6738C2.74414 12.5928 2.65039 12.4268 2.66992 12.2002C2.71289 11.6953 2.89648 11.1621 3.09961 10.7148Z" fill="#FFFFFF" fill-opacity="1.000000" fill-rule="evenodd"/>
	</g>
</svg>
