<svg width="16.000000" height="16.000000" viewBox="0 0 16 16" fill="none" xmlns="http://www.w3.org/2000/svg" xmlns:xlink="http://www.w3.org/1999/xlink">
	<desc>
			Created with Pixso.
	</desc>
	<defs>
		<clipPath id="clip5_3521">
			<rect width="16.000000" height="16.000000" fill="white" fill-opacity="0"/>
		</clipPath>
	</defs>
	<g clip-path="url(#clip5_3521)">
		<path d="M7.25 2.16602C4.44336 2.16602 2.16797 4.44238 2.16797 7.25C2.16797 10.0566 4.44336 12.333 7.25 12.333C8.65234 12.333 9.92188 11.7656 10.8418 10.8467C11.7656 9.92578 12.334 8.65527 12.334 7.25C12.334 4.44238 10.0586 2.16602 7.25 2.16602ZM0.833984 7.25C0.833984 3.70605 3.70703 0.833008 7.25 0.833008C10.7949 0.833008 13.668 3.70605 13.668 7.25C13.668 8.78223 13.1289 10.1904 12.2324 11.2939L14.9707 14.0283C15.2324 14.2881 15.2324 14.71 14.9727 14.9707C14.7129 15.2314 14.291 15.2314 14.0293 14.9717L11.2891 12.2363C10.1875 13.1299 8.78125 13.666 7.25 13.666C3.70703 13.666 0.833984 10.7939 0.833984 7.25Z" fill="#424551" fill-opacity="1.000000" fill-rule="evenodd"/>
	</g>
</svg>
